<?xml version="1.0" encoding="UTF-8"?>
<svg width="61.947mm" height="112.85mm" version="1.1" viewBox="0 0 61.947 112.85" xml:space="preserve" xmlns="http://www.w3.org/2000/svg"><g transform="translate(-71.911 -91.918)" stroke-width="0"><path d="m133.82 195.37a9.6494 9.4017 0 01-4.8247 8.1421 9.6494 9.4017 0 01-9.6494 0 9.6494 9.4017 0 01-4.8247-8.1421h9.6494z" fill="#523e83"/><rect x="114.52" y="161.93" width="19.299" height="34.353" fill="#523e83"/><path d="m92.705 195.37a9.6494 9.4017 0 01-4.8247 8.1421 9.6494 9.4017 0 01-9.6494 0 9.6494 9.4017 0 01-4.8247-8.1421h9.6494z" fill="#523e83"/><rect x="73.406" y="161.43" width="19.299" height="34.66" fill="#523e83"/><path transform="scale(-1)" d="m-72.013-101.89a9.6494 9.9683 0 01-4.8247 8.6328 9.6494 9.9683 0 01-9.6494-1e-6 9.6494 9.9683 0 01-4.8247-8.6328h9.6494z" fill="#f39651"/><rect transform="scale(-1)" x="-91.312" y="-134.98" width="19.299" height="34.124" fill="#f39651"/><path transform="scale(-1)" d="m-113.01-101.89a9.7496 9.9694 0 01-4.8748 8.6337 9.7496 9.9694 0 01-9.7496 0 9.7496 9.9694 0 01-4.8748-8.6337h9.7496z" fill="#f39651"/><rect transform="scale(-1)" x="-132.51" y="-135.56" width="19.499" height="34.563" fill="#f39651"/><path d="m76.023 149.19c-5.1194-7.114-4.0101-15.626-4.0101-15.626l19.301-.0488.33388 2.776c-12.832 4.654-15.624 12.898-15.624 12.898z" fill="#f39651"/><path d="m133.79 162.61s.71697-9.798-3.4121-15.202l-16.551 12.691c.59513 2.0959.68847 6.046.68847 6.046z" fill="#523e83"/><path d="m92.712 165.34.54029-5.4027 10.372-14.021 9.3546-9.3765v-1.61c-13.303-2.7963-21.269 1.271-21.269 1.271-12.626 4.6604-15.731 12.731-15.731 12.731z" fill="#523e83"/><path d="m75.982 148.93c-3.5391 4.0596-2.5682 13.76-2.5682 13.76l19.517.26024.20818-2.0819.78069-7.859z" fill="#523e83"/><path d="m92.363 160.22c.27835 1.2515 7.1179 3.5009 14.718 1.5865 0 0-2.9224-14.552-3.4869-15.959-6.7765-1.1678-12.103 10.454-11.231 14.373z" fill="#f39651"/><path d="m132.48 135.21c.74648 7.0915-2.0886 12.413-2.0886 12.413-8.3979 11.011-16.609 12.597-16.609 12.597l-7.4647 1.7708-2.7993-16.14 9.051-9.331.46655-2.3327z" fill="#f39651"/></g></svg>
