<?xml version="1.0" encoding="UTF-8"?>
<svg width="800" height="636.36" fill="none" version="1.1" viewBox="0 0 800 636.36" xmlns="http://www.w3.org/2000/svg"><path d="m627.27 81.819h172.73v500c0 30.123-24.423 54.545-54.545 54.545h-90.909a27.273 27.273 0 01-27.273-27.273z" fill="url(#a)" stroke-width="4.5454"/><path d="m172.73 81.819h-172.73v500c0 30.123 24.423 54.545 54.545 54.545h90.909a27.273 27.273 0 0027.273-27.273z" fill="#fc413d" stroke-width="4.5454"/><path d="m141.94 20.256c-36.514-30.691-90.991-25.973-121.68 10.541-30.691 36.509-25.973 90.986 10.541 121.68l345.81 290.68a36.364 36.364 0 0046.795 0l345.81-290.68c36.509-30.691 41.227-85.168 10.536-121.68-30.691-36.509-85.168-41.227-121.68-10.536l-258.07 216.93z" fill="url(#b)" stroke-width="4.5454"/><defs><linearGradient id="a" x1="165" x2="165" y1="44" y2="166" gradientTransform="matrix(4.5454 0 0 4.5454 -36.363 -118.18)" gradientUnits="userSpaceOnUse"><stop stop-color="#60d673" offset="0"/><stop stop-color="#42c868" offset=".17"/><stop stop-color="#0ebc5f" offset=".39"/><stop stop-color="#00a9bb" offset=".62"/><stop stop-color="#3c90ff" offset=".86"/><stop stop-color="#3186ff" offset="1"/></linearGradient><linearGradient id="b" x1="8" x2="184" y1="46.13" y2="46.13" gradientTransform="matrix(4.5454 0 0 4.5454 -36.363 -118.18)" gradientUnits="userSpaceOnUse"><stop stop-color="#ff63a0" offset=".08"/><stop stop-color="#fc413d" offset=".3"/><stop stop-color="#fc413d" offset=".5"/><stop stop-color="#fc413d" offset=".65"/><stop stop-color="#fc5c30" offset=".72"/><stop stop-color="#feb10c" offset=".86"/><stop stop-color="#fec700" offset=".91"/><stop stop-color="#ffdb0f" offset=".96"/></linearGradient></defs></svg>