<?xml version="1.0" encoding="UTF-8"?>
<svg width="800" height="859.1" fill="none" version="1.1" xmlns="http://www.w3.org/2000/svg"><path d="m64.743 150.87c0-83.322 67.544-150.87 150.87-150.87h368.78c83.322 0 150.87 67.544 150.87 150.87v159.25c0 83.322-67.544 150.87-150.87 150.87h-368.78c-83.322 0-150.87-67.544-150.87-150.87z" fill="#bbe2ff" stroke-width="5.2384"/><path d="m1.1859 216.83c-10.733-81.572 52.766-153.97 135.04-153.97h527.56c82.274 0 145.77 72.394 135.04 153.97l-32.127 244.15 32.127 244.15c10.733 81.572-52.761 153.97-135.04 153.97h-527.56c-82.274 0-145.77-72.394-135.04-153.97l32.127-244.15z" fill="#3c90ff" stroke-width="5.2384"/><mask id="a" x="19" y="20" width="154" height="152" maskUnits="userSpaceOnUse"><path d="M 19.867,49.392 C 17.818,33.82 29.94,20 45.645,20 h 100.71 c 15.706,0 27.827,13.82 25.778,29.392 L 166,96 l 6.133,46.608 C 174.182,158.18 162.061,172 146.355,172 H 45.645 C 29.939,172 17.818,158.18 19.867,142.608 L 26,96 Z" fill="#3c90ff"/></mask><g transform="matrix(5.2384 0 0 5.2384 -102.89 -41.907)" mask="url(#a)"><path transform="matrix(1,0,0,-1,13,172)" d="m0 0h166v76h-166z" fill="url(#b)"/></g><mask id="c" x="19" y="20" width="154" height="152" maskUnits="userSpaceOnUse"><path d="M 19.867,49.392 C 17.818,33.82 29.94,20 45.645,20 h 100.71 c 15.706,0 27.827,13.82 25.778,29.392 L 166,96 l 6.133,46.608 C 174.182,158.18 162.061,172 146.355,172 H 45.645 C 29.939,172 17.818,158.18 19.867,142.608 L 26,96 Z" fill="#3186ff"/></mask><g transform="matrix(5.2384 0 0 5.2384 -102.89 -41.907)" mask="url(#c)"><path d="m32 27.2c0-10.604 8.596-19.2 19.2-19.2h89.6c10.604 0 19.2 8.596 19.2 19.2v68.8h-128z" fill="url(#d)" filter="url(#e)"/></g><path d="m291.84 656.56q-32.908 0-56.454-10.702-23.547-10.702-39.864-28.628-16.056-18.198-22.745-35.584-6.6894-17.386-5.3484-21.137a10.843 10.843 0 015.3484-5.8879l29.702-11.771q3.7402-1.8701 7.4909-.53431 3.7402 1.0686 8.8267 12.305 5.3536 11.236 14.982 23.814a74.909 74.909 0 0023.547 19.529q13.651 6.9566 33.709 6.9566 32.373 0 51.373-18.727 19.262-18.727 19.262-47.622 0-31.305-20.335-48.162-20.33-17.124-53.777-17.124h-28.088a9.9529 9.9529 0 01-6.9566-2.6716q-2.6716-2.944-2.6768-6.6894v-28.628q0-4.0178 2.6716-6.6894a9.5339 9.5339 0 016.9618-2.944h24.343q29.969 0 48.162-16.323 18.193-16.323 18.193-42.274 0-25.679-16.323-41.467-16.323-15.788-44.945-15.788-16.056 0-27.826 5.3536a60.241 60.241 0 00-20.335 14.982 118.91 118.91 0 00-14.715 19.801q-6.1499 10.168-9.9006 11.236-3.7402.80148-7.2237-1.3358l-28.093-13.646q-3.4783-1.8754-4.5469-5.888t6.4223-18.727q7.758-14.982 23.541-30.503a110.01 110.01 0 0136.925-24.081q21.137-8.5648 49.23-8.5595 52.174 0 82.672 27.554 30.503 27.292 30.503 72.243 0 31.037-14.982 53.777-14.72 22.735-41.739 32.111v1.0686q32.64 9.6282 51.368 35.312 19 25.422 18.994 60.734 0 50.571-35.317 82.945-35.307 32.373-92.038 32.373zm268.47-6.1551q-4.5469 0-8.0304-3.4783a11.786 11.786 0 01-3.2059-8.2924v-297.52l-60.2 43.342q-3.2164 2.4097-7.4961 1.6082a10.267 10.267 0 01-6.417-4.0126l-17.391-24.62a10.372 10.372 0 01-1.8753-7.4909q.80147-4.2745 4.2798-6.6842l106.75-76.255q1.341-1.0686 2.944-1.603 1.6082-.80147 3.7454-.80147h22.478q4.5469 0 7.2237 3.2111 2.944 2.9335 2.944 7.4909v363.33q0 4.8193-3.4783 8.2924a10.477 10.477 0 01-8.0304 3.4783z" fill="#fff" stroke-width="5.2384"/><defs><linearGradient id="b" x1="83" x2="83" y1="76" gradientUnits="userSpaceOnUse"><stop stop-color="#4fa0ff" offset="0"/><stop stop-color="#3186ff" offset="1"/></linearGradient><linearGradient id="d" x1="89.06" x2="89.06" y1="21.75" y2="96.39" gradientUnits="userSpaceOnUse"><stop stop-color="#a9a8ff" offset="0"/><stop stop-color="#3c90ff" offset=".8"/></linearGradient><filter id="e" x="20" y="-4" width="152" height="112" color-interpolation-filters="sRGB" filterUnits="userSpaceOnUse"><feFlood flood-opacity="0" result="BackgroundImageFix"/><feBlend in="SourceGraphic" in2="BackgroundImageFix" result="shape"/><feGaussianBlur result="effect1_foregroundBlur_37330_7673" stdDeviation="6"/></filter></defs></svg>