<?xml version="1.0" encoding="UTF-8"?>
<svg width="800" height="741.37" fill="none" version="1.1" xmlns="http://www.w3.org/2000/svg"><mask id="a" x="12" y="18" width="168" height="154" maskUnits="userSpaceOnUse"><path d="M63.09 37c14.626-25.333 51.193-25.334 65.819 0l45.033 78c14.626 25.334-3.657 57.001-32.91 57.001H50.967c-29.253 0-47.536-31.667-32.91-57.001Z" fill="#fff"/></mask><g transform="matrix(4.8141 0 0 4.8141 -62.147 -86.652)" mask="url(#a)"><path d="m206.9 172.02h-91.888l-19.015-32.934 45.944-79.578z" fill="url(#b)"/><path d="M-14.919 172.006 50.04 59.494v.002L31.032 92.422h38.02L115 172.004l-129.918.001Z" fill="url(#c)"/><path d="M96.007-20.085 141.954 59.5l-19.011 32.928H31.048Z" fill="url(#d)"/></g><defs><linearGradient id="b" x1="193.6" x2="103.09" y1="165.6" y2="111.21" gradientUnits="userSpaceOnUse"><stop stop-color="#ffe921" offset=".09"/><stop stop-color="#fec700" offset="1"/></linearGradient><linearGradient id="c" x1="114.4" x2="15.53" y1="181.61" y2="121.8" gradientUnits="userSpaceOnUse"><stop stop-color="#a9a8ff" offset=".15"/><stop stop-color="#6d97ff" offset=".33"/><stop stop-color="#3186ff" offset=".48"/></linearGradient><linearGradient id="d" x1="128.88" x2="28.7" y1="37.88" y2="84.64" gradientUnits="userSpaceOnUse"><stop stop-color="#0ebc5f" offset=".55"/><stop stop-color="#78c9ff" offset=".85"/></linearGradient></defs></svg>